<svg xmlns="http://www.w3.org/2000/svg" xmlns:xlink="http://www.w3.org/1999/xlink" width="1194" height="834" viewBox="0 0 1194 834"><style>@import url("../fonts/faces.css");text{font-variant-numeric:tabular-nums;}</style><defs>
 <radialGradient id="spot" cx="0.5" cy="0.5" r="0.5"><stop offset="0" stop-color="rgba(255,255,255,0.16)"/><stop offset="1" stop-color="rgba(255,255,255,0)"/></radialGradient>
 <radialGradient id="vign" cx="0.5" cy="0.5" r="0.72"><stop offset="0.55" stop-color="rgba(4,5,7,0)"/><stop offset="1" stop-color="rgba(4,5,7,0.6)"/></radialGradient>
 <linearGradient id="sheenV" x1="0" y1="0" x2="0" y2="1"><stop offset="0" stop-color="rgba(255,255,255,0.10)"/><stop offset="0.45" stop-color="rgba(255,255,255,0.025)"/><stop offset="1" stop-color="rgba(255,255,255,0)"/></linearGradient>
 <radialGradient id="sheenC" cx="0.5" cy="0.32" r="0.6"><stop offset="0" stop-color="rgba(255,255,255,0.12)"/><stop offset="1" stop-color="rgba(255,255,255,0)"/></radialGradient>
 <radialGradient id="discGrad" cx="0.5" cy="0.5" r="0.5"><stop offset="0" stop-color="rgba(255,255,255,0.10)"/><stop offset="0.7" stop-color="rgba(255,255,255,0.02)"/><stop offset="1" stop-color="rgba(255,255,255,0.10)"/></radialGradient>
 <linearGradient id="floorGrad" x1="0" y1="0" x2="0" y2="1"><stop offset="0" stop-color="rgba(91,155,255,0)"/><stop offset="0.6" stop-color="rgba(91,155,255,0.05)"/><stop offset="1" stop-color="rgba(91,155,255,0.10)"/></linearGradient>
 <filter id="softBlur" x="-40%" y="-40%" width="180%" height="180%"><feGaussianBlur stdDeviation="14"/></filter>
 <filter id="miniBlur" x="-50%" y="-50%" width="200%" height="200%"><feGaussianBlur stdDeviation="6"/></filter>

 <radialGradient id="blueGlow" cx="0.5" cy="0.5" r="0.5"><stop offset="0" stop-color="rgba(61,138,255,0.20)"/><stop offset="0.6" stop-color="rgba(61,138,255,0.07)"/><stop offset="1" stop-color="rgba(61,138,255,0)"/></radialGradient>
</defs><image x="0" y="0" width="1194" height="834" preserveAspectRatio="xMidYMid slice" href="../assets/render_a_camera.png"/><ellipse cx="597" cy="334" rx="657" ry="350" fill="rgba(255,255,255,0.05)"/><ellipse cx="597" cy="434" rx="191" ry="42" fill="rgba(120,170,255,0.10)"/><rect width="1194" height="834" fill="url(#vign)"/><rect width="1194" height="834" fill="url(#floorGrad)" opacity="0.5"/><line x1="420.9" y1="60.0" x2="559.9" y2="60.0" stroke="rgba(255,255,255,0.22)" opacity="0.55"/><line x1="634.1" y1="60.0" x2="773.1" y2="60.0" stroke="rgba(255,255,255,0.22)" opacity="0.55"/><text x="597.0" y="43.4" font-family="Inter" font-weight="600" font-size="9.73" fill="rgba(244,248,253,0.72)" text-anchor="middle" letter-spacing="0.34em" opacity="1.0">STUDIO OF SIDECARS</text><g><circle cx="1134.2113333333332" cy="31.506666666666664" r="20.386666666666667" fill="rgba(0,0,0,0.34)" filter="url(#softBlur)" opacity="0.75"/><circle cx="1134.2113333333332" cy="31.506666666666664" r="20.386666666666667" fill="rgba(10,12,16,0.28)"/><circle cx="1134.2113333333332" cy="31.506666666666664" r="20.386666666666667" fill="url(#sheenC)"/><circle cx="1134.2113333333332" cy="31.506666666666664" r="20.386666666666667" fill="none" stroke="rgba(255,255,255,0.12)"/><g transform="translate(1125.8713333333333,23.166666666666664)" fill="none" stroke="rgba(255,255,255,0.66)" stroke-width="1.5" stroke-linecap="round" stroke-linejoin="round" opacity="1.0"><g transform="translate(0,0) scale(0.695)"><path d="M12 15V4M8.5 7.5 12 4l3.5 3.5"/><path d="M5 13v5.5A1.5 1.5 0 0 0 6.5 20h11a1.5 1.5 0 0 0 1.5-1.5V13"/></g></g></g><g><circle cx="1084.1713333333332" cy="31.506666666666664" r="20.386666666666667" fill="rgba(0,0,0,0.34)" filter="url(#softBlur)" opacity="0.75"/><circle cx="1084.1713333333332" cy="31.506666666666664" r="20.386666666666667" fill="rgba(10,12,16,0.28)"/><circle cx="1084.1713333333332" cy="31.506666666666664" r="20.386666666666667" fill="url(#sheenC)"/><circle cx="1084.1713333333332" cy="31.506666666666664" r="20.386666666666667" fill="none" stroke="rgba(255,255,255,0.12)"/><g transform="translate(1075.8313333333333,23.166666666666664)" fill="none" stroke="rgba(255,255,255,0.66)" stroke-width="1.5" stroke-linecap="round" stroke-linejoin="round" opacity="1.0"><g transform="translate(0,0) scale(0.695)"><path d="M5 4h11l3 3v13H5z"/><path d="M8 4v5h7V4M8 20v-6h8v6"/></g></g></g><g><rect x="433.0" y="738.1" width="328.0" height="59.3" rx="20.386666666666667" fill="rgba(0,0,0,0.42)" filter="url(#softBlur)" opacity="0.7"/><rect x="433.0" y="738.1" width="328.0" height="59.3" rx="20.386666666666667" fill="rgba(9,11,16,0.42)"/><rect x="433.0" y="738.1" width="328.0" height="59.3" rx="20.386666666666667" fill="url(#sheenV)"/><rect x="433.0" y="738.1" width="328.0" height="59.3" rx="20.386666666666667" fill="none" stroke="rgba(255,255,255,0.10)"/></g><rect x="451" y="745" width="43" height="46" rx="15" fill="rgba(255,255,255,0.07)"/><g transform="translate(460.73333333333335,756.6233333333333)" fill="none" stroke="rgba(255,255,255,0.92)" stroke-width="1.5" stroke-linecap="round" stroke-linejoin="round" opacity="1.0"><g transform="translate(0,0) scale(0.9266666666666666)"><path d="M20 12a8 8 0 1 1-2.3-5.6"/><path d="M20 4v3.4h-3.4"/></g></g><line x1="499" y1="753" x2="499" y2="783" stroke="rgba(255,255,255,0.07)"/><g transform="translate(518.7333333333333,756.6233333333333)" fill="none" stroke="rgba(255,255,255,0.45)" stroke-width="1.5" stroke-linecap="round" stroke-linejoin="round" opacity="1.0"><g transform="translate(0,0) scale(0.9266666666666666)"><circle cx="12" cy="12" r="4.2"/><path d="M12 2.6v2.6M12 18.8v2.6M2.6 12h2.6M18.8 12h2.6M5.2 5.2l1.9 1.9M16.9 16.9l1.9 1.9M18.8 18.8l-1.9-1.9M7.1 7.1 5.2 5.2"/></g></g><line x1="557" y1="753" x2="557" y2="783" stroke="rgba(255,255,255,0.07)"/><g transform="translate(576.7333333333333,756.6233333333333)" fill="none" stroke="rgba(255,255,255,0.45)" stroke-width="1.5" stroke-linecap="round" stroke-linejoin="round" opacity="1.0"><g transform="translate(0,0) scale(0.9266666666666666)"><circle cx="12" cy="12" r="8.2"/><ellipse cx="12" cy="12" rx="8.2" ry="3.4"/><path d="M4 12h16"/></g></g><line x1="615" y1="753" x2="615" y2="783" stroke="rgba(255,255,255,0.07)"/><g transform="translate(634.7333333333333,756.6233333333333)" fill="none" stroke="rgba(255,255,255,0.45)" stroke-width="1.5" stroke-linecap="round" stroke-linejoin="round" opacity="1.0"><g transform="translate(0,0) scale(0.9266666666666666)"><path d="M12 3.2a8.8 8.8 0 1 0 0 17.6h1a1.6 1.6 0 0 0 1.2-2.6 1.6 1.6 0 0 1 1.3-2.6h2a4.9 4.9 0 0 0 4.9-4.9c0-4.2-4.5-7.5-10.4-7.5z"/><circle cx="7.8" cy="9.4" r="1.1"/><circle cx="10.6" cy="6.7" r="1.1"/><circle cx="14.2" cy="6.9" r="1.1"/><circle cx="17" cy="9.6" r="1.1"/></g></g><line x1="673" y1="753" x2="673" y2="783" stroke="rgba(255,255,255,0.07)"/><g transform="translate(692.7333333333333,756.6233333333333)" fill="none" stroke="rgba(255,255,255,0.45)" stroke-width="1.5" stroke-linecap="round" stroke-linejoin="round" opacity="1.0"><g transform="translate(0,0) scale(0.9266666666666666)"><path d="M14.6 4.4h-5.2L7.2 7H4.4a2 2 0 0 0-2 2v8.6a2 2 0 0 0 2 2h15.2a2 2 0 0 0 2-2V9a2 2 0 0 0-2-2h-2.8z"/><circle cx="12" cy="13" r="3.4"/></g></g><text x="39.4" y="785.6" font-family="Space Grotesk" font-weight="600" font-size="21.313333333333333" fill="#EDF2F8" text-anchor="start" letter-spacing="-0.005em" opacity="1.0">OBSIDIAN · CAMERA</text><text x="39.4" y="813.4" font-family="Inter" font-weight="500" font-size="10.193333333333333" fill="rgba(237,242,248,0.5)" text-anchor="start" letter-spacing="0.06em" opacity="1.0">MIRRORLESS — 45 MM  F/1.4  ·  MATTE ONYX  ·  640 G</text><text x="39.4" y="829.2" font-family="Inter" font-weight="600" font-size="8.803333333333333" fill="rgba(237,242,248,0.3)" text-anchor="start" letter-spacing="0.16em" opacity="1.0">OBJ N° 04</text><circle cx="1155" cy="755" r="38.9" fill="none" stroke="rgba(255,255,255,0.16)" opacity="0"/><circle cx="1155" cy="755" r="24.1" fill="rgba(255,255,255,0.06)" stroke="rgba(255,255,255,0.35)"/><circle cx="1155" cy="755" r="9.3" fill="rgba(255,255,255,0.85)"/><circle cx="1155" cy="755" r="13.9" fill="none" stroke="rgba(255,255,255,0.5)" stroke-width="1"/><text x="1154.6" y="797.4" font-family="Inter" font-weight="600" font-size="7.876666666666666" fill="rgba(237,242,248,0.4)" text-anchor="middle" letter-spacing="0.3em" opacity="1.0">CAPTURE</text></svg>