<svg xmlns="http://www.w3.org/2000/svg" xmlns:xlink="http://www.w3.org/1999/xlink" width="1194" height="834" viewBox="0 0 1194 834"><style>@import url("../fonts/faces.css");text{font-variant-numeric:tabular-nums;}</style><defs>
 <radialGradient id="spot" cx="0.5" cy="0.5" r="0.5"><stop offset="0" stop-color="rgba(255,255,255,0.16)"/><stop offset="1" stop-color="rgba(255,255,255,0)"/></radialGradient>
 <radialGradient id="vign" cx="0.5" cy="0.5" r="0.72"><stop offset="0.55" stop-color="rgba(4,5,7,0)"/><stop offset="1" stop-color="rgba(4,5,7,0.6)"/></radialGradient>
 <linearGradient id="sheenV" x1="0" y1="0" x2="0" y2="1"><stop offset="0" stop-color="rgba(255,255,255,0.10)"/><stop offset="0.45" stop-color="rgba(255,255,255,0.025)"/><stop offset="1" stop-color="rgba(255,255,255,0)"/></linearGradient>
 <radialGradient id="sheenC" cx="0.5" cy="0.32" r="0.6"><stop offset="0" stop-color="rgba(255,255,255,0.12)"/><stop offset="1" stop-color="rgba(255,255,255,0)"/></radialGradient>
 <radialGradient id="discGrad" cx="0.5" cy="0.5" r="0.5"><stop offset="0" stop-color="rgba(255,255,255,0.10)"/><stop offset="0.7" stop-color="rgba(255,255,255,0.02)"/><stop offset="1" stop-color="rgba(255,255,255,0.10)"/></radialGradient>
 <linearGradient id="floorGrad" x1="0" y1="0" x2="0" y2="1"><stop offset="0" stop-color="rgba(91,155,255,0)"/><stop offset="0.6" stop-color="rgba(91,155,255,0.05)"/><stop offset="1" stop-color="rgba(91,155,255,0.10)"/></linearGradient>
 <filter id="softBlur" x="-40%" y="-40%" width="180%" height="180%"><feGaussianBlur stdDeviation="14"/></filter>
 <filter id="miniBlur" x="-50%" y="-50%" width="200%" height="200%"><feGaussianBlur stdDeviation="6"/></filter>

 <radialGradient id="blueGlow" cx="0.5" cy="0.5" r="0.5"><stop offset="0" stop-color="rgba(61,138,255,0.20)"/><stop offset="0.6" stop-color="rgba(61,138,255,0.07)"/><stop offset="1" stop-color="rgba(61,138,255,0)"/></radialGradient>
</defs><image x="0" y="0" width="1194" height="834" preserveAspectRatio="xMidYMid slice" href="../assets/render_b_motorcycle.png"/><ellipse cx="597" cy="517" rx="597" ry="133" fill="rgba(255,255,255,0.045)"/><line x1="71.6" y1="596.3" x2="1122.4" y2="596.3" stroke="rgba(150,190,255,0.10)" opacity="1"/><line x1="71.6" y1="598.8" x2="1122.4" y2="598.8" stroke="rgba(0,0,0,0.3)" opacity="1"/><rect width="1194" height="834" fill="url(#vign)"/><rect width="1194" height="834" fill="url(#floorGrad)" opacity="0.6"/><text x="37.8" y="37.1" font-family="Space Grotesk" font-weight="700" font-size="18.53333333333333" fill="#FFFFFF" text-anchor="start" letter-spacing="0.1em" opacity="1.0">SC</text><text x="69.3" y="37.1" font-family="Inter" font-weight="600" font-size="8.803333333333333" fill="rgba(237,242,248,0.42)" text-anchor="start" letter-spacing="0.22em" opacity="1.0">VELOCE  —  CONFIGURATOR  2026</text><g><rect x="1000.6" y="20.4" width="70.4" height="37.1" rx="12.046666666666667" fill="rgba(0,0,0,0.42)" filter="url(#softBlur)" opacity="0.7"/><rect x="1000.6" y="20.4" width="70.4" height="37.1" rx="12.046666666666667" fill="rgba(9,11,16,0.35)"/><rect x="1000.6" y="20.4" width="70.4" height="37.1" rx="12.046666666666667" fill="url(#sheenV)"/><rect x="1000.6" y="20.4" width="70.4" height="37.1" rx="12.046666666666667" fill="none" stroke="rgba(255,255,255,0.10)"/></g><text x="1035.9" y="43.6" font-family="Inter" font-weight="600" font-size="9.266666666666666" fill="rgba(255,255,255,0.75)" text-anchor="middle" letter-spacing="0.14em" opacity="1.0">SAVE</text><g><rect x="1078.5" y="20.4" width="79.7" height="37.1" rx="12.046666666666667" fill="rgba(0,0,0,0.42)" filter="url(#softBlur)" opacity="0.7"/><rect x="1078.5" y="20.4" width="79.7" height="37.1" rx="12.046666666666667" fill="rgba(9,11,16,0.35)"/><rect x="1078.5" y="20.4" width="79.7" height="37.1" rx="12.046666666666667" fill="url(#sheenV)"/><rect x="1078.5" y="20.4" width="79.7" height="37.1" rx="12.046666666666667" fill="none" stroke="rgba(255,255,255,0.10)"/></g><text x="1118.3" y="43.6" font-family="Inter" font-weight="600" font-size="9.266666666666666" fill="rgba(255,255,255,0.75)" text-anchor="middle" letter-spacing="0.14em" opacity="1.0">SHARE</text><text x="43.2" y="695.0" font-family="Space Grotesk" font-weight="700" font-size="53.74666666666666" fill="#EDF2F8" text-anchor="start" letter-spacing="-0.012em" opacity="1.0">VELOCE R1</text><text x="43.2" y="726.5" font-family="Inter" font-weight="500" font-size="11.12" fill="rgba(237,242,248,0.55)" text-anchor="start" letter-spacing="0.1em" opacity="1.0">CAFÉ RACER   ·   935 CC / 96 HP   ·   DUAL-SPORT TYRES</text><text x="43.2" y="746.0" font-family="Inter" font-weight="600" font-size="8.34" fill="rgba(237,242,248,0.3)" text-anchor="start" letter-spacing="0.2em" opacity="1.0">CONFIG N° 07 — MODIFICATIONS UNSAVED</text><g><rect x="43.2" y="769.1" width="118.6" height="40.8" rx="12.973333333333333" fill="rgba(0,0,0,0.42)" filter="url(#softBlur)" opacity="0.7"/><rect x="43.2" y="769.1" width="118.6" height="40.8" rx="12.973333333333333" fill="#EEF3FA"/><rect x="43.2" y="769.1" width="118.6" height="40.8" rx="12.973333333333333" fill="url(#sheenV)"/><rect x="43.2" y="769.1" width="118.6" height="40.8" rx="12.973333333333333" fill="none" stroke="rgba(255,255,255,0.10)"/></g><text x="102.5" y="794.2" font-family="Inter" font-weight="700" font-size="10.193333333333333" fill="#0B0D10" text-anchor="middle" letter-spacing="0.1em" opacity="1.0">CONFIGURE</text><rect x="175" y="769" width="119" height="41" rx="14" fill="none" stroke="rgba(255,255,255,0.28)"/><text x="234.1" y="794.2" font-family="Inter" font-weight="600" font-size="10.193333333333333" fill="rgba(255,255,255,0.85)" text-anchor="middle" letter-spacing="0.12em" opacity="1.0">SPECS</text><text x="43.2" y="769.1" font-family="Inter" font-weight="400" font-size="0.01" fill="#EDF2F8" text-anchor="start" opacity="1.0"></text><g><rect x="283.8" y="752.5" width="626.4" height="53.7" rx="16.68" fill="rgba(0,0,0,0.42)" filter="url(#softBlur)" opacity="0.7"/><rect x="283.8" y="752.5" width="626.4" height="53.7" rx="16.68" fill="rgba(8,10,14,0.5)"/><rect x="283.8" y="752.5" width="626.4" height="53.7" rx="16.68" fill="url(#sheenV)"/><rect x="283.8" y="752.5" width="626.4" height="53.7" rx="16.68" fill="none" stroke="rgba(255,255,255,0.10)"/></g><rect x="287" y="760" width="115" height="39" rx="12" fill="rgba(255,255,255,0.86)"/><text x="352.4" y="782.1" font-family="Inter" font-weight="700" font-size="9.73" fill="#0B0D10" text-anchor="middle" letter-spacing="0.1em" opacity="1.0">EXTERIOR</text><text x="474.7" y="782.1" font-family="Inter" font-weight="600" font-size="9.73" fill="rgba(237,242,248,0.5)" text-anchor="middle" letter-spacing="0.1em" opacity="1.0">INTERIOR</text><text x="597.0" y="782.1" font-family="Inter" font-weight="600" font-size="9.73" fill="rgba(237,242,248,0.5)" text-anchor="middle" letter-spacing="0.1em" opacity="1.0">FINISH</text><text x="719.3" y="782.1" font-family="Inter" font-weight="600" font-size="9.73" fill="rgba(237,242,248,0.5)" text-anchor="middle" letter-spacing="0.1em" opacity="1.0">SOUND</text><text x="841.6" y="782.1" font-family="Inter" font-weight="600" font-size="9.73" fill="rgba(237,242,248,0.5)" text-anchor="middle" letter-spacing="0.1em" opacity="1.0">DRIVE</text><text x="854.6" y="796.0" font-family="Inter" font-weight="400" font-size="0.1" fill="#EDF2F8" text-anchor="start" opacity="1.0"></text><circle cx="945" cy="779" r="7" fill="#F4F1EA" stroke="rgba(255,255,255,0.25)" stroke-width="1"/><circle cx="970" cy="779" r="7" fill="#11141A" stroke="rgba(255,255,255,0.25)" stroke-width="1"/><circle cx="994" cy="779" r="7" fill="#C7A15B" stroke="rgba(255,255,255,0.25)" stroke-width="1"/><circle cx="1018" cy="779" r="7" fill="#8A2E2E" stroke="rgba(255,255,255,0.25)" stroke-width="1"/><circle cx="1042" cy="779" r="7" fill="#5B9BFF" stroke="rgba(255,255,255,0.25)" stroke-width="1"/><circle cx="945" cy="779" r="9.7" fill="none" stroke="rgba(255,255,255,0.6)" stroke-width="1.4" opacity="0"/><g><rect x="1104.4" y="283.6" width="51.9" height="266.9" rx="18.53333333333333" fill="rgba(0,0,0,0.42)" filter="url(#softBlur)" opacity="0.7"/><rect x="1104.4" y="283.6" width="51.9" height="266.9" rx="18.53333333333333" fill="rgba(8,10,14,0.4)"/><rect x="1104.4" y="283.6" width="51.9" height="266.9" rx="18.53333333333333" fill="url(#sheenV)"/><rect x="1104.4" y="283.6" width="51.9" height="266.9" rx="18.53333333333333" fill="none" stroke="rgba(255,255,255,0.10)"/></g><g transform="translate(1120.1866666666667,291.8999999999999)" fill="none" stroke="rgba(255,255,255,0.7)" stroke-width="1.7" stroke-linecap="round" stroke-linejoin="round" opacity="1.0"><g transform="translate(0,0) scale(0.8494444444444444)"><path d="M12 5v14M5 12h14"/></g></g><g transform="translate(1120.1866666666667,323.4066666666666)" fill="none" stroke="rgba(255,255,255,0.7)" stroke-width="1.7" stroke-linecap="round" stroke-linejoin="round" opacity="1.0"><g transform="translate(0,0) scale(0.8494444444444444)"><path d="M5 12h14"/></g></g><line x1="1117.4" y1="365.1" x2="1143.4" y2="365.1" stroke="rgba(255,255,255,0.08)" opacity="1"/><g transform="translate(1120.1866666666667,386.4199999999999)" fill="none" stroke="rgba(255,255,255,0.7)" stroke-width="1.7" stroke-linecap="round" stroke-linejoin="round" opacity="1.0"><g transform="translate(0,0) scale(0.8494444444444444)"><ellipse cx="12" cy="12" rx="9" ry="4.4"/><circle cx="12" cy="7.6" r="1"/><path d="M3.6 12v0a9.6 8.8 0 0 0 16.8 0"/></g></g><g transform="translate(1120.1866666666667,417.92666666666656)" fill="none" stroke="rgba(255,255,255,0.7)" stroke-width="1.7" stroke-linecap="round" stroke-linejoin="round" opacity="1.0"><g transform="translate(0,0) scale(0.8494444444444444)"><path d="M4.8 9A8 8 0 1 1 4 12"/><path d="M4.6 4.6V9H9"/></g></g><line x1="1117.4" y1="459.6" x2="1143.4" y2="459.6" stroke="rgba(255,255,255,0.08)" opacity="1"/><g transform="translate(1120.1866666666667,480.9399999999999)" fill="none" stroke="rgba(255,255,255,0.7)" stroke-width="1.7" stroke-linecap="round" stroke-linejoin="round" opacity="1.0"><g transform="translate(0,0) scale(0.8494444444444444)"><circle cx="12" cy="12" r="8.2"/><circle cx="12" cy="12" r="2.6"/><path d="M12 2.4v3.4M12 18.2v3.4M2.4 12h3.4M18.2 12h3.4"/></g></g><g transform="translate(1120.1866666666667,512.4466666666665)" fill="none" stroke="rgba(255,255,255,0.7)" stroke-width="1.7" stroke-linecap="round" stroke-linejoin="round" opacity="1.0"><g transform="translate(0,0) scale(0.8494444444444444)"><path d="M5 4h11l3 3v13H5z"/><path d="M8 4v5h7V4M8 20v-6h8v6"/></g></g></svg>